<?xml version="1.0" encoding="utf-8"?>
<!-- Generator: Adobe Illustrator 15.0.0, SVG Export Plug-In . SVG Version: 6.00 Build 0)  -->
<!DOCTYPE svg PUBLIC "-//W3C//DTD SVG 1.0//EN" "http://www.w3.org/TR/2001/REC-SVG-20010904/DTD/svg10.dtd">
<svg version="1.0" id="Layer_1" xmlns="http://www.w3.org/2000/svg" xmlns:xlink="http://www.w3.org/1999/xlink" x="0px" y="0px"
	 width="448px" height="291px" viewBox="0 0 448 291" style="enable-background:new 0 0 448 291;" xml:space="preserve">
<g>
	<defs>
		<rect id="SVGID_1_" x="-279" y="-417.005" width="962.345" height="931.005"/>
	</defs>
	<clipPath id="SVGID_2_">
		<use xlink:href="#SVGID_1_"  style="overflow:visible;"/>
	</clipPath>
	<g style="clip-path:url(#SVGID_2_);">
		<defs>
			<rect id="SVGID_3_" x="-279" y="-417.005" width="962.345" height="931.005"/>
		</defs>
		<clipPath id="SVGID_4_">
			<use xlink:href="#SVGID_3_"  style="overflow:visible;"/>
		</clipPath>
		<g style="clip-path:url(#SVGID_4_);">
			<g>
				<defs>
					<rect id="SVGID_5_" x="-172.946" y="-289.506" width="689.737" height="636.311"/>
				</defs>
				<clipPath id="SVGID_6_">
					<use xlink:href="#SVGID_5_"  style="overflow:visible;"/>
				</clipPath>
				<polygon style="clip-path:url(#SVGID_6_);fill:#EC7E8B;" points="417.6,346.805 516.792,232.482 -73.754,-289.505 
					-172.945,-175.183 				"/>
			</g>
		</g>
		<g style="clip-path:url(#SVGID_4_);">
			<g>
				<defs>
					<rect id="SVGID_7_" x="-52.26" y="-313.384" width="476.439" height="776.684"/>
				</defs>
				<clipPath id="SVGID_8_">
					<use xlink:href="#SVGID_7_"  style="overflow:visible;"/>
				</clipPath>
				<polygon style="clip-path:url(#SVGID_8_);fill:#A581B5;" points="83.469,-313.384 -52.26,-247.426 288.451,463.299 
					424.18,397.342 				"/>
			</g>
		</g>
		<g style="clip-path:url(#SVGID_4_);">
			<g>
				<defs>
					<rect id="SVGID_9_" x="-56.813" y="-113.798" width="740.158" height="564.663"/>
				</defs>
				<clipPath id="SVGID_10_">
					<use xlink:href="#SVGID_9_"  style="overflow:visible;"/>
				</clipPath>
				
					<rect x="236.976" y="-225.553" transform="matrix(0.5554 0.8316 -0.8316 0.5554 279.4095 -185.5757)" style="clip-path:url(#SVGID_10_);fill:#00BBC1;" width="152.581" height="788.172"/>
			</g>
		</g>
		<g style="clip-path:url(#SVGID_4_);">
			<g>
				<defs>
					<rect id="SVGID_11_" x="-155.71" y="-372.249" width="642.022" height="706.521"/>
				</defs>
				<clipPath id="SVGID_12_">
					<use xlink:href="#SVGID_11_"  style="overflow:visible;"/>
				</clipPath>
				<polygon style="clip-path:url(#SVGID_12_);fill:#00BBC1;" points="486.313,-266.062 354.993,-372.248 -155.71,228.084 
					-24.39,334.271 				"/>
			</g>
		</g>
		<g style="clip-path:url(#SVGID_4_);">
			<g>
				<defs>
					<rect id="SVGID_13_" x="-70.444" y="-373.028" width="641.982" height="887.028"/>
				</defs>
				<clipPath id="SVGID_14_">
					<use xlink:href="#SVGID_13_"  style="overflow:visible;"/>
				</clipPath>
				
					<rect x="160.436" y="-394.991" transform="matrix(0.8512 0.5248 -0.5248 0.8512 74.2683 -121.0024)" style="clip-path:url(#SVGID_14_);fill:#E4EA94;" width="180.222" height="930.955"/>
			</g>
		</g>
		<g style="clip-path:url(#SVGID_4_);">
			<g>
				<defs>
					<rect id="SVGID_15_" x="-53.059" y="-384.427" width="641.981" height="887.027"/>
				</defs>
				<clipPath id="SVGID_16_">
					<use xlink:href="#SVGID_15_"  style="overflow:visible;"/>
				</clipPath>
				
					<rect x="177.821" y="-406.39" transform="matrix(0.8512 0.5248 -0.5248 0.8512 70.8725 -131.8221)" style="clip-path:url(#SVGID_16_);fill:#E4EA94;" width="180.222" height="930.955"/>
			</g>
		</g>
		<g style="clip-path:url(#SVGID_4_);">
			<g>
				<defs>
					<rect id="SVGID_17_" x="-279" y="-417.005" width="913.786" height="575.997"/>
				</defs>
				<clipPath id="SVGID_18_">
					<use xlink:href="#SVGID_17_"  style="overflow:visible;"/>
				</clipPath>
				
					<rect x="87.782" y="-594.483" transform="matrix(0.4454 0.8953 -0.8953 0.4454 -16.8432 -230.8217)" style="clip-path:url(#SVGID_18_);fill:#9B848B;" width="180.222" height="930.954"/>
			</g>
		</g>
	</g>
</g>
</svg>
