<?xml version="1.0" encoding="utf-8"?>
<!-- Generator: Adobe Illustrator 15.0.0, SVG Export Plug-In . SVG Version: 6.00 Build 0)  -->
<!DOCTYPE svg PUBLIC "-//W3C//DTD SVG 1.0//EN" "http://www.w3.org/TR/2001/REC-SVG-20010904/DTD/svg10.dtd">
<svg version="1.0" id="Layer_1" xmlns="http://www.w3.org/2000/svg" xmlns:xlink="http://www.w3.org/1999/xlink" x="0px" y="0px"
	 width="118.598px" height="145.319px" viewBox="0 0 118.598 145.319" style="enable-background:new 0 0 118.598 145.319;"
	 xml:space="preserve">
<polygon style="fill:#FFFFFF;" points="38.938,95.642 43.608,95.642 41.273,87.569 "/>
<g>
	<defs>
		<rect id="SVGID_1_" width="118.598" height="145.319"/>
	</defs>
	<clipPath id="SVGID_2_">
		<use xlink:href="#SVGID_1_"  style="overflow:visible;"/>
	</clipPath>
	<path style="clip-path:url(#SVGID_2_);fill:#FFFFFF;" d="M24.747,93.073c0-5.19-1.729-7.607-5.44-7.607h-2.98v15.215h2.98
		C23.018,100.68,24.747,98.263,24.747,93.073"/>
	<path style="clip-path:url(#SVGID_2_);fill:#FFFFFF;" d="M81.712,63.65c0-5.19-1.729-7.607-5.44-7.607h-2.98v15.215h2.98
		C79.982,71.258,81.712,68.841,81.712,63.65"/>
	<path style="clip-path:url(#SVGID_2_);fill:#FFFFFF;" d="M115.427,1.524C115.394,0.672,114.694,0,113.842,0H97.539
		c-0.85,0-1.546,0.667-1.584,1.515L93.84,41.719l-1.452-28.253c-0.043-0.843-0.74-1.505-1.584-1.505H74.501
		c-0.84,0-1.535,0.655-1.583,1.494L70.99,41.953l-0.828-12.236c-0.002-0.022-0.008-0.043-0.01-0.066
		c-0.011-0.114-0.018-0.187-0.021-0.187h-0.008c-0.154-0.718-0.789-1.252-1.546-1.252l-16.241,0.021
		c-0.757,0-1.391,0.533-1.545,1.252h-0.008l-0.011,0.119c-0.005,0.041-0.016,0.081-0.019,0.123l-0.833,12.068l-1.105-18.953
		c-0.021-0.584-0.361-1.11-0.887-1.367c-0.525-0.258-1.15-0.205-1.625,0.137l-19.886,14.62l-0.396-13.334
		c0-0.595-0.334-1.14-0.863-1.411c-0.529-0.27-1.167-0.222-1.65,0.125L0.658,38.369C0.245,38.667,0,39.145,0,39.655v104.079
		c0,0.875,0.71,1.585,1.585,1.585H24.38h0.453h23.054h1.553h23.765c0,0,0.004-0.001,0.005-0.001h20.706h0.059h23.038
		c0.432,0,0.843-0.175,1.144-0.485c0.298-0.311,0.457-0.729,0.44-1.16L115.427,1.524z M69.294,52.667
		c0-0.198,0.16-0.359,0.358-0.359h6.53c6.51,0,9.673,3.71,9.673,11.342c0,7.632-3.163,11.342-9.673,11.342h-6.53
		c-0.198,0-0.358-0.161-0.358-0.359V52.667z M49.905,52.667c0-0.198,0.161-0.359,0.359-0.359h13.355
		c0.198,0,0.358,0.161,0.358,0.359v3.017c0,0.198-0.16,0.359-0.358,0.359h-9.716v5.345h8.779c0.198,0,0.358,0.16,0.358,0.358v3.017
		c0,0.198-0.16,0.359-0.358,0.359h-8.779v6.136h9.716c0.198,0,0.358,0.16,0.358,0.359v3.016c0,0.198-0.16,0.359-0.358,0.359H50.264
		c-0.198,0-0.359-0.161-0.359-0.359V52.667z M30.517,52.667c0-0.198,0.16-0.359,0.358-0.359H44.23c0.199,0,0.359,0.161,0.359,0.359
		v3.017c0,0.198-0.16,0.359-0.359,0.359h-9.716v5.345h8.779c0.198,0,0.359,0.16,0.359,0.358v3.017c0,0.198-0.161,0.359-0.359,0.359
		h-8.779v6.136h9.716c0.199,0,0.359,0.16,0.359,0.359v3.016c0,0.198-0.16,0.359-0.359,0.359H30.875
		c-0.198,0-0.358-0.161-0.358-0.359V52.667z M12.329,52.667c0-0.198,0.16-0.359,0.359-0.359h3.28c0.198,0,0.358,0.161,0.358,0.359
		v18.591h9.19c0.198,0,0.358,0.16,0.358,0.359v3.016c0,0.198-0.16,0.359-0.358,0.359H12.688c-0.199,0-0.359-0.161-0.359-0.359
		V52.667z M12.329,82.089c0-0.197,0.16-0.358,0.359-0.358h6.531c6.508,0,9.672,3.71,9.672,11.342c0,7.631-3.164,11.341-9.672,11.341
		h-6.531c-0.199,0-0.359-0.16-0.359-0.357V82.089z M33.372,133.478c0,0.197-0.161,0.357-0.359,0.357h-3.28
		c-0.096,0-0.187-0.038-0.255-0.105c-0.067-0.068-0.104-0.16-0.104-0.255l0.13-14.638l-4.769,11.759
		c-0.055,0.136-0.186,0.224-0.332,0.224h-3.105c-0.146,0-0.277-0.088-0.332-0.224l-4.769-11.759l0.129,14.638
		c0.001,0.095-0.036,0.187-0.104,0.255c-0.067,0.067-0.158,0.105-0.254,0.105h-3.28c-0.199,0-0.359-0.16-0.359-0.357v-21.966
		c0-0.198,0.16-0.359,0.359-0.359h4.217c0.147,0,0.279,0.09,0.333,0.227l5.613,14.127l5.612-14.127
		c0.054-0.137,0.186-0.227,0.333-0.227h4.217c0.198,0,0.359,0.161,0.359,0.359V133.478z M43.535,133.478
		c0,0.197-0.16,0.357-0.358,0.357h-3.281c-0.198,0-0.358-0.16-0.358-0.357v-21.966c0-0.198,0.16-0.359,0.358-0.359h3.281
		c0.198,0,0.358,0.161,0.358,0.359V133.478z M46.34,104.414c-0.16,0-0.301-0.104-0.345-0.258l-1.477-5.101h-6.49l-1.478,5.101
		c-0.044,0.153-0.185,0.258-0.344,0.258h-3.573c-0.114,0-0.222-0.054-0.289-0.146c-0.068-0.093-0.088-0.211-0.053-0.319l6.97-22.229
		c0.047-0.15,0.186-0.252,0.342-0.252h3.339c0.157,0,0.295,0.102,0.342,0.252l6.944,22.142c0.036,0.056,0.057,0.123,0.057,0.195
		c0,0.197-0.161,0.357-0.359,0.357c-0.004,0-0.009,0-0.013,0H46.34z M63.246,133.478c0,0.197-0.161,0.357-0.359,0.357H50.059
		c-0.198,0-0.359-0.16-0.359-0.357v-21.966c0-0.198,0.161-0.359,0.359-0.359h3.28c0.198,0,0.359,0.161,0.359,0.359v18.591h9.189
		c0.198,0,0.359,0.16,0.359,0.357V133.478z M66.556,85.107c0,0.198-0.16,0.357-0.358,0.357h-5.353v18.592
		c0,0.197-0.161,0.357-0.358,0.357h-3.28c-0.198,0-0.359-0.16-0.359-0.357V85.464h-5.352c-0.198,0-0.359-0.159-0.359-0.357v-3.018
		c0-0.197,0.161-0.358,0.359-0.358h14.702c0.198,0,0.358,0.161,0.358,0.358V85.107z M81.434,133.478
		c0,0.197-0.161,0.357-0.358,0.357H68.247c-0.198,0-0.359-0.16-0.359-0.357v-21.966c0-0.198,0.161-0.359,0.359-0.359h3.28
		c0.197,0,0.358,0.161,0.358,0.359v18.591h9.189c0.197,0,0.358,0.16,0.358,0.357V133.478z M85.512,104.414c-0.004,0-0.009,0-0.013,0
		h-3.573c-0.16,0-0.301-0.104-0.345-0.258l-1.478-5.101h-6.489l-1.479,5.101c-0.044,0.153-0.184,0.258-0.344,0.258h-3.573
		c-0.114,0-0.222-0.054-0.289-0.146c-0.067-0.093-0.088-0.211-0.053-0.319l6.97-22.229c0.047-0.15,0.187-0.252,0.343-0.252h3.339
		c0.156,0,0.295,0.102,0.342,0.252l6.943,22.142c0.036,0.056,0.058,0.123,0.058,0.195C85.871,104.253,85.711,104.414,85.512,104.414
		 M97.563,75.342c-2.386,0-5.188-0.546-6.665-1.298c-0.119-0.061-0.195-0.184-0.195-0.319v-3.28c0-0.121,0.061-0.234,0.163-0.301
		c0.101-0.065,0.229-0.077,0.34-0.027c1.119,0.49,3.201,1.404,6.153,1.404c4.272,0,4.767-1.901,4.767-3.332
		c0-2.089-0.687-2.657-3.671-3.041c-4.909-0.617-7.752-1.875-7.752-6.477c0-6.06,5.699-6.714,8.149-6.714
		c2.491,0,4.717,0.398,6.105,1.092c0.122,0.061,0.198,0.185,0.198,0.321v3.192c0,0.121-0.062,0.234-0.162,0.3
		c-0.102,0.066-0.229,0.077-0.339,0.029c-1.669-0.728-3.614-1.113-5.627-1.113c-2.854,0-4.239,0.956-4.239,2.922
		c0,1.991,0.886,2.408,3.934,2.808c4.13,0.556,7.547,1.427,7.547,6.477C106.27,72.729,103.178,75.342,97.563,75.342"/>
	<polygon style="clip-path:url(#SVGID_2_);fill:#FFFFFF;" points="74.523,95.642 79.194,95.642 76.859,87.569 	"/>
</g>
</svg>
