<?xml version="1.0" encoding="utf-8"?>
<!-- Generator: Adobe Illustrator 17.1.0, SVG Export Plug-In . SVG Version: 6.00 Build 0)  -->
<!DOCTYPE svg PUBLIC "-//W3C//DTD SVG 1.0//EN" "http://www.w3.org/TR/2001/REC-SVG-20010904/DTD/svg10.dtd">
<svg version="1.0" id="Layer_1" xmlns="http://www.w3.org/2000/svg" xmlns:xlink="http://www.w3.org/1999/xlink" x="0px" y="0px"
	 viewBox="0 0 118.6 145.3" enable-background="new 0 0 118.6 145.3" xml:space="preserve">
<polygon fill="#101430" points="38.9,95.6 43.6,95.6 41.3,87.6 "/>
<g>
	<g>
		<defs>
			<rect id="SVGID_1_" x="0" y="0" width="118.6" height="145.3"/>
		</defs>
		<clipPath id="SVGID_2_">
			<use xlink:href="#SVGID_1_"  overflow="visible"/>
		</clipPath>
		<path clip-path="url(#SVGID_2_)" fill="#101430" d="M24.7,93.1c0-5.2-1.7-7.6-5.4-7.6h-3v15.2h3C23,100.7,24.7,98.3,24.7,93.1"/>
	</g>
	<g>
		<defs>
			<rect id="SVGID_3_" x="0" y="0" width="118.6" height="145.3"/>
		</defs>
		<clipPath id="SVGID_4_">
			<use xlink:href="#SVGID_3_"  overflow="visible"/>
		</clipPath>
		<path clip-path="url(#SVGID_4_)" fill="#101430" d="M81.7,63.7c0-5.2-1.7-7.6-5.4-7.6h-3v15.2h3C80,71.3,81.7,68.8,81.7,63.7"/>
	</g>
	<g>
		<defs>
			<rect id="SVGID_5_" x="0" y="0" width="118.6" height="145.3"/>
		</defs>
		<clipPath id="SVGID_6_">
			<use xlink:href="#SVGID_5_"  overflow="visible"/>
		</clipPath>
		<path clip-path="url(#SVGID_6_)" fill="#101430" d="M115.4,1.5c0-0.9-0.7-1.5-1.6-1.5H97.5C96.7,0,96,0.7,96,1.5l-2.1,40.2
			l-1.5-28.3c0-0.8-0.7-1.5-1.6-1.5H74.5c-0.8,0-1.5,0.7-1.6,1.5L71,42l-0.8-12.2c0,0,0,0,0-0.1c0-0.1,0-0.2,0-0.2h0
			c-0.2-0.7-0.8-1.3-1.5-1.3l-16.2,0c-0.8,0-1.4,0.5-1.5,1.3h0l0,0.1c0,0,0,0.1,0,0.1l-0.8,12.1l-1.1-19c0-0.6-0.4-1.1-0.9-1.4
			c-0.5-0.3-1.2-0.2-1.6,0.1L26.4,36.2L26,22.9c0-0.6-0.3-1.1-0.9-1.4c-0.5-0.3-1.2-0.2-1.6,0.1L0.7,38.4C0.2,38.7,0,39.1,0,39.7
			v104.1c0,0.9,0.7,1.6,1.6,1.6h22.8h0.5h23.1h1.6h23.8c0,0,0,0,0,0h20.7H94h23c0.4,0,0.8-0.2,1.1-0.5c0.3-0.3,0.5-0.7,0.4-1.2
			L115.4,1.5z M69.3,52.7c0-0.2,0.2-0.4,0.4-0.4h6.5c6.5,0,9.7,3.7,9.7,11.3S82.7,75,76.2,75h-6.5c-0.2,0-0.4-0.2-0.4-0.4
			C69.3,74.6,69.3,52.7,69.3,52.7z M49.9,52.7c0-0.2,0.2-0.4,0.4-0.4h13.4c0.2,0,0.4,0.2,0.4,0.4v3c0,0.2-0.2,0.4-0.4,0.4h-9.7v5.3
			h8.8c0.2,0,0.4,0.2,0.4,0.4v3c0,0.2-0.2,0.4-0.4,0.4h-8.8v6.1h9.7c0.2,0,0.4,0.2,0.4,0.4v3c0,0.2-0.2,0.4-0.4,0.4H50.3
			c-0.2,0-0.4-0.2-0.4-0.4V52.7z M30.5,52.7c0-0.2,0.2-0.4,0.4-0.4h13.4c0.2,0,0.4,0.2,0.4,0.4v3c0,0.2-0.2,0.4-0.4,0.4h-9.7v5.3
			h8.8c0.2,0,0.4,0.2,0.4,0.4v3c0,0.2-0.2,0.4-0.4,0.4h-8.8v6.1h9.7c0.2,0,0.4,0.2,0.4,0.4v3c0,0.2-0.2,0.4-0.4,0.4H30.9
			c-0.2,0-0.4-0.2-0.4-0.4V52.7z M12.3,52.7c0-0.2,0.2-0.4,0.4-0.4H16c0.2,0,0.4,0.2,0.4,0.4v18.6h9.2c0.2,0,0.4,0.2,0.4,0.4v3
			c0,0.2-0.2,0.4-0.4,0.4H12.7c-0.2,0-0.4-0.2-0.4-0.4C12.3,74.6,12.3,52.7,12.3,52.7z M12.3,82.1c0-0.2,0.2-0.4,0.4-0.4h6.5
			c6.5,0,9.7,3.7,9.7,11.3c0,7.6-3.2,11.3-9.7,11.3h-6.5c-0.2,0-0.4-0.2-0.4-0.4C12.3,104.1,12.3,82.1,12.3,82.1z M33.4,133.5
			c0,0.2-0.2,0.4-0.4,0.4h-3.3c-0.1,0-0.2,0-0.3-0.1c-0.1-0.1-0.1-0.2-0.1-0.3l0.1-14.6l-4.8,11.8c-0.1,0.1-0.2,0.2-0.3,0.2h-3.1
			c-0.1,0-0.3-0.1-0.3-0.2l-4.8-11.8l0.1,14.6c0,0.1,0,0.2-0.1,0.3c-0.1,0.1-0.2,0.1-0.3,0.1h-3.3c-0.2,0-0.4-0.2-0.4-0.4v-22
			c0-0.2,0.2-0.4,0.4-0.4h4.2c0.1,0,0.3,0.1,0.3,0.2l5.6,14.1l5.6-14.1c0.1-0.1,0.2-0.2,0.3-0.2H33c0.2,0,0.4,0.2,0.4,0.4
			C33.4,111.5,33.4,133.5,33.4,133.5z M43.5,133.5c0,0.2-0.2,0.4-0.4,0.4h-3.3c-0.2,0-0.4-0.2-0.4-0.4v-22c0-0.2,0.2-0.4,0.4-0.4
			h3.3c0.2,0,0.4,0.2,0.4,0.4V133.5z M46.3,104.4c-0.2,0-0.3-0.1-0.3-0.3l-1.5-5.1H38l-1.5,5.1c0,0.2-0.2,0.3-0.3,0.3h-3.6
			c-0.1,0-0.2-0.1-0.3-0.1c-0.1-0.1-0.1-0.2-0.1-0.3l7-22.2c0-0.2,0.2-0.3,0.3-0.3h3.3c0.2,0,0.3,0.1,0.3,0.3l6.9,22.1
			c0,0.1,0.1,0.1,0.1,0.2c0,0.2-0.2,0.4-0.4,0.4c0,0,0,0,0,0H46.3z M63.2,133.5c0,0.2-0.2,0.4-0.4,0.4H50.1c-0.2,0-0.4-0.2-0.4-0.4
			v-22c0-0.2,0.2-0.4,0.4-0.4h3.3c0.2,0,0.4,0.2,0.4,0.4v18.6h9.2c0.2,0,0.4,0.2,0.4,0.4V133.5z M66.6,85.1c0,0.2-0.2,0.4-0.4,0.4
			h-5.4v18.6c0,0.2-0.2,0.4-0.4,0.4h-3.3c-0.2,0-0.4-0.2-0.4-0.4V85.5h-5.4c-0.2,0-0.4-0.2-0.4-0.4v-3c0-0.2,0.2-0.4,0.4-0.4h14.7
			c0.2,0,0.4,0.2,0.4,0.4V85.1z M81.4,133.5c0,0.2-0.2,0.4-0.4,0.4H68.2c-0.2,0-0.4-0.2-0.4-0.4v-22c0-0.2,0.2-0.4,0.4-0.4h3.3
			c0.2,0,0.4,0.2,0.4,0.4v18.6h9.2c0.2,0,0.4,0.2,0.4,0.4L81.4,133.5L81.4,133.5z M85.5,104.4C85.5,104.4,85.5,104.4,85.5,104.4
			h-3.6c-0.2,0-0.3-0.1-0.3-0.3l-1.5-5.1h-6.5l-1.5,5.1c0,0.2-0.2,0.3-0.3,0.3h-3.6c-0.1,0-0.2-0.1-0.3-0.1
			c-0.1-0.1-0.1-0.2-0.1-0.3l7-22.2c0-0.2,0.2-0.3,0.3-0.3h3.3c0.2,0,0.3,0.1,0.3,0.3l6.9,22.1c0,0.1,0.1,0.1,0.1,0.2
			C85.9,104.3,85.7,104.4,85.5,104.4 M97.6,75.3c-2.4,0-5.2-0.5-6.7-1.3c-0.1-0.1-0.2-0.2-0.2-0.3v-3.3c0-0.1,0.1-0.2,0.2-0.3
			c0.1-0.1,0.2-0.1,0.3,0c1.1,0.5,3.2,1.4,6.2,1.4c4.3,0,4.8-1.9,4.8-3.3c0-2.1-0.7-2.7-3.7-3c-4.9-0.6-7.8-1.9-7.8-6.5
			c0-6.1,5.7-6.7,8.1-6.7c2.5,0,4.7,0.4,6.1,1.1c0.1,0.1,0.2,0.2,0.2,0.3v3.2c0,0.1-0.1,0.2-0.2,0.3c-0.1,0.1-0.2,0.1-0.3,0
			c-1.7-0.7-3.6-1.1-5.6-1.1c-2.9,0-4.2,1-4.2,2.9c0,2,0.9,2.4,3.9,2.8c4.1,0.6,7.5,1.4,7.5,6.5C106.3,72.7,103.2,75.3,97.6,75.3"/>
	</g>
	<g>
		<defs>
			<rect id="SVGID_7_" x="0" y="0" width="118.6" height="145.3"/>
		</defs>
		<clipPath id="SVGID_8_">
			<use xlink:href="#SVGID_7_"  overflow="visible"/>
		</clipPath>
		<polygon clip-path="url(#SVGID_8_)" fill="#101430" points="74.5,95.6 79.2,95.6 76.9,87.6 		"/>
	</g>
</g>
</svg>
